<svg xmlns="http://www.w3.org/2000/svg" width="906" height="101" fill="none" viewBox="0 0 906 101"><path fill="#24a600" d="M41.408 67.174H20.773C9.377 67.174.14 56.315.14 42.92V.477h20.634c11.396 0 20.635 10.858 20.635 24.253zm47.938-8.776c0 23.265-18.477 42.125-41.269 42.125V21.539C48.077 9.906 57.316.477 68.712.477h20.634z"/><path fill="#1f1f1f" d="M134.758 92.607h-16.619V8.911h16.619zm31.559 0h-16.62V8.911h21.881l37.304 60.381h2.87V8.912h16.62v83.695h-21.881l-37.304-60.38h-2.87zm93.794 0h-16.62V8.911h63.011v14.946h-46.391v19.968h43.163v14.347h-43.163zm97.435 1.435q-12.675 0-23.316-5.38-10.521-5.5-16.739-15.305-6.217-9.923-6.217-22.598t6.217-22.478q6.218-9.924 16.739-15.304 10.641-5.5 23.316-5.5t23.195 5.5q10.642 5.38 16.859 15.304 6.217 9.804 6.217 22.478T397.6 73.357q-6.217 9.805-16.859 15.305-10.521 5.38-23.195 5.38m0-15.185q8.13 0 14.826-3.467 6.815-3.587 10.761-9.924 3.945-6.457 3.945-14.707t-3.945-14.587q-3.946-6.456-10.761-9.924-6.696-3.586-14.826-3.587-8.25 0-15.066 3.587-6.696 3.468-10.641 9.924-3.946 6.337-3.946 14.587t3.946 14.707q3.945 6.338 10.641 9.924 6.816 3.467 15.066 3.467m120.191 13.75h-62.772V8.911h16.62v67.675h46.152zm72.232 0h-64.446V8.911h64.446V23.38h-47.827v19.967h45.077v14.348h-45.077V78.14h47.827zm46.738 1.435q-12.435 0-21.283-3.467-8.729-3.588-13.272-9.924-4.424-6.337-4.424-14.468h16.381q0 5.859 5.739 9.685 5.74 3.707 16.859 3.707 10.522 0 15.304-2.75 4.902-2.87 4.902-7.772 0-4.305-3.467-6.576-3.468-2.392-11.478-3.826l-16.979-2.99q-12.435-2.151-18.891-7.771-6.337-5.62-6.337-15.424 0-7.174 4.065-12.794 4.185-5.739 12.076-8.967 8.012-3.228 19.011-3.228 12.076 0 20.566 3.586 8.609 3.468 13.032 9.805 4.425 6.217 4.424 14.467h-16.5q0-5.858-5.62-9.565-5.62-3.825-15.902-3.826-9.325 0-13.869 2.75t-4.544 7.652q0 3.946 3.348 6.337 3.348 2.272 10.761 3.587l15.304 2.63q14.468 2.392 21.044 8.131 6.696 5.739 6.696 15.783 0 11.478-9.566 18.413-9.565 6.815-27.38 6.815m82.584 0q-12.435 0-21.283-3.467-8.727-3.588-13.271-9.924-4.425-6.337-4.424-14.468h16.38q0 5.859 5.739 9.685 5.74 3.707 16.859 3.707 10.522 0 15.305-2.75 4.902-2.87 4.902-7.772 0-4.305-3.468-6.576-3.466-2.392-11.478-3.826l-16.978-2.99q-12.435-2.151-18.892-7.771-6.337-5.62-6.337-15.424 0-7.174 4.066-12.794 4.184-5.739 12.076-8.967 8.01-3.228 19.011-3.228 12.076 0 20.565 3.586 8.608 3.468 13.033 9.805 4.423 6.217 4.423 14.467h-16.5q0-5.858-5.619-9.565-5.62-3.825-15.902-3.826-9.327 0-13.87 2.75t-4.543 7.652q0 3.946 3.347 6.337 3.348 2.272 10.761 3.587l15.305 2.63q14.467 2.392 21.043 8.131 6.696 5.739 6.696 15.783 0 11.478-9.565 18.413-9.566 6.815-27.381 6.815m90.476 0q-12.674 0-23.316-5.38-10.521-5.5-16.739-15.305-6.217-9.923-6.217-22.598t6.217-22.478q6.218-9.924 16.739-15.304 10.642-5.5 23.316-5.5t23.196 5.5q10.64 5.38 16.858 15.304 6.218 9.804 6.218 22.478t-6.218 22.598q-6.217 9.805-16.858 15.305-10.522 5.38-23.196 5.38m0-15.185q8.13 0 14.826-3.467 6.815-3.587 10.761-9.924 3.945-6.457 3.945-14.707t-3.945-14.587q-3.946-6.456-10.761-9.924-6.696-3.586-14.826-3.587-8.25 0-15.065 3.587-6.696 3.468-10.642 9.924-3.945 6.337-3.945 14.587t3.945 14.707q3.946 6.338 10.642 9.924 6.815 3.467 15.065 3.467m74.039 13.75h-16.62V8.911h21.881l37.304 60.381h2.87V8.912h16.62v83.695H883.98l-37.304-60.38h-2.87z"/></svg>