<?xml version="1.0" encoding="UTF-8"?>
<!DOCTYPE svg PUBLIC "-//W3C//DTD SVG 1.1//EN" "http://www.w3.org/Graphics/SVG/1.1/DTD/svg11.dtd">
<!-- Creator: CorelDRAW -->
<svg xmlns="http://www.w3.org/2000/svg" xml:space="preserve" width="127mm" height="72mm" version="1.1" style="shape-rendering:geometricPrecision; text-rendering:geometricPrecision; image-rendering:optimizeQuality; fill-rule:evenodd; clip-rule:evenodd"
viewBox="0 0 12700 7200"
 xmlns:xlink="http://www.w3.org/1999/xlink"
 xmlns:xodm="http://www.corel.com/coreldraw/odm/2003">
 <defs>
  <style type="text/css">
   <![CDATA[
    .str0 {stroke:#FEFEFE;stroke-width:20;stroke-miterlimit:22.9256}
    .fil0 {fill:none}
    .fil3 {fill:#7F7F7F}
    .fil1 {fill:#990000}
    .fil2 {fill:white}
   ]]>
  </style>
 </defs>
 <g id="Слой_x0020_1">
  <metadata id="CorelCorpID_0Corel-Layer"/>
  <g id="_2857554528368">
   <rect class="fil0 str0" x="-23.47" y="-26.7" width="12700" height="7200"/>
   <rect class="fil1" x="104.82" y="3834.15" width="12499.98" height="2253.84"/>
   <path class="fil1" d="M386.24 6422.25l-200.44 0 0 381.45 -80.97 0 0 -452.21 281.41 0 0 70.76zm607.23 214.97l0 166.48 -80.34 0 0 -452.21c59.15,-2.32 90.58,-3.37 94.26,-3.37 70.43,0 122.42,10.85 155.84,32.69 33.41,21.82 50.18,56.08 50.18,102.91 0,103.74 -61.15,155.6 -183.46,155.6 -9.28,0 -21.39,-0.62 -36.48,-2.1zm0 -216.25l0 144.87c13.82,1.27 24.57,1.9 32.16,1.9 36.7,0 63.37,-6.01 80.34,-18.14 16.88,-12.01 25.32,-31.95 25.32,-59.77 0,-46.71 -37.86,-70.11 -113.35,-70.11 -11.38,0 -19.51,0.4 -24.47,1.25zm1095.52 -69.48c-25.52,92.25 -57.57,177.14 -96.16,254.53 -38.6,77.38 -75.71,130.41 -111.24,159.1 -35.53,28.57 -82.44,42.91 -140.66,42.91l0 -73.81c2.43,0.43 7.28,0.63 14.46,0.63 26.35,0 48.07,-4.73 65.25,-14.24 17.09,-9.48 32.28,-23.82 45.66,-42.91l-162.15 -326.21 89.3 0 118.92 263.16c36.6,-74.53 67.8,-162.25 93.53,-263.16l83.09 0zm838.04 452.21l-80.34 0 0 -381.45 -166.81 0 0 381.45 -80.34 0 0 -452.21 327.49 0 0 452.21zm881.17 0l-80.35 0 0 -381.45 -166.8 0 0 381.45 -80.35 0 0 -452.21 327.5 0 0 452.21zm819.36 0l-33.63 -91.72 -155.1 0 -30.9 91.72 -89.93 0 181.03 -458.74 34.9 0 182 458.74 -88.37 0zm-111.54 -319.98l-54.3 166.79 108.69 0 -54.39 -166.79zm1802.77 321.88c-5.9,1.16 -14.74,1.78 -26.55,1.78 -28.17,0 -49.57,-6.73 -63.9,-20.34 -14.44,-13.59 -24.47,-35.85 -29.95,-66.73 -7.71,-43.23 -21.52,-74.33 -41.54,-93.32 -20.14,-18.87 -48.61,-28.35 -85.52,-28.35l-3.68 0 0 205.06 -79.71 0 0 -452.21 79.71 0 0 178.82 6.21 0c35.86,0 63.7,-7.81 83.72,-23.62 19.94,-15.71 32.9,-40.06 38.91,-73.06 5.6,-30.05 14.66,-51.77 27.2,-65.27 12.55,-13.49 32.8,-20.24 60.84,-20.24 11.29,0 20.77,0.52 28.36,1.47l0 71.38c-2.01,-0.42 -6.44,-0.62 -13.17,-0.62 -9.28,0 -15.82,2.2 -19.72,6.53 -3.8,4.32 -7.28,14.33 -10.65,30.27 -5.48,26.57 -17.5,49.44 -35.74,68.53 -18.36,19.19 -41.45,31.95 -69.28,38.38 29.53,8.63 53.04,23.19 70.76,43.64 17.71,20.46 30.15,49.13 37.43,86.04 3.88,18.54 7.91,30.05 12.11,34.48 4.23,4.42 11.61,6.63 22.15,6.63 4.32,0 8.33,-0.42 12.01,-1.26l0 72.01zm512.98 -232.06c0,-64.2 17.72,-118.72 53.04,-163.32 35.31,-44.7 82.65,-67.06 141.92,-67.06 64.43,0 113.97,20.04 148.55,60.1 34.58,40.08 51.89,96.8 51.89,170.28 0,73.81 -18.04,131.79 -53.99,174.29 -36.06,42.38 -87.1,63.58 -153,63.58 -61.36,0 -108.07,-21.32 -140.22,-64.11 -32.05,-42.7 -48.19,-100.6 -48.19,-173.76zm83.4 0c0,55.04 9.07,96.48 27.21,124.41 18.12,27.84 44.07,41.85 77.8,41.85 40.18,0 70.86,-14.01 91.95,-42.06 21.09,-28.04 31.62,-69.38 31.62,-124.2 0,-105.96 -39,-159 -117.02,-159 -36.28,0 -63.9,14.24 -82.99,42.91 -18.97,28.58 -28.57,67.28 -28.57,116.09zm1274.13 230.16l-77.81 0 -46.61 -243.44 -91.09 249.67 -28.47 0 -91.73 -249.67 -48.83 243.44 -77.17 0 91.1 -452.21 42.29 0 98.25 304.92 95.43 -304.92 42.27 0 92.37 452.21zm849.43 0l-80.34 0 0 -381.45 -166.81 0 0 381.45 -80.34 0 0 -452.21 327.49 0 0 452.21zm819.37 0l-33.63 -91.72 -155.1 0 -30.9 91.72 -89.93 0 181.03 -458.74 34.9 0 181.99 458.74 -88.36 0zm-111.55 -319.98l-54.3 166.79 108.7 0 -54.4 -166.79zm969.84 319.98l0 -203.59 -180.1 0 0 203.59 -80.34 0 0 -452.21 80.34 0 0 177.02 180.1 0 0 -177.02 79.06 0 0 452.21 -79.06 0zm983.73 0l-80.35 0 0 -304.29 -236.59 311.35 -34.06 0 0 -459.27 80.35 0 0 304.29 236.59 -311.35 34.06 0 0 459.27zm904.67 0l-80.34 0 0 -304.29 -236.59 311.35 -34.06 0 0 -459.27 80.34 0 0 304.29 236.6 -311.35 34.05 0 0 459.27zm-51.34 -584.42c-6.11,31.1 -19.39,54.72 -39.64,70.74 -20.36,16.03 -45.66,24.04 -76.13,24.04 -30.15,0 -55.14,-8.01 -75.06,-24.04 -20.04,-16.02 -33.11,-39.64 -39.23,-70.74l64.52 -13.28c4.76,37.11 21.83,55.57 51.25,55.57 30.89,0 47.86,-18.24 51.04,-54.94l63.25 12.65z"/>
   <path class="fil2" d="M575.26 5624.39l451.39 -1277.32 510.55 0 447.47 1277.32 -494.78 0 -39.42 -161.64 -344.97 0 -41.39 161.64 -488.85 0zm796.35 -465.19l-90.68 -423.82 -9.85 0 -90.68 423.82 191.21 0zm1088.13 -435.64l0 463.23 169.51 -463.23 423.83 0 0 900.83 -423.83 0 0 -376.48 0 -98.58 -169.51 475.06 -423.82 0 0 -900.83 423.82 0zm82.79 -141.93c-85.42,0 -164.93,-23 -238.52,-68.98 -73.6,-46.01 -110.38,-117.62 -110.38,-214.87l232.58 0c0,81.49 39.44,122.21 118.27,122.21 77.56,0 116.32,-40.72 116.32,-122.21l232.59 0c0,98.55 -36.79,170.52 -110.38,215.85 -73.6,45.33 -153.76,68 -240.48,68zm1472.48 -234.56l0 348.9 -423.82 0 0 128.12 106.45 0c172.16,0 306.85,28.26 404.1,84.77 97.25,56.5 145.88,153.75 145.88,291.74 0,148.49 -49.94,256.24 -149.82,323.26 -99.88,67.03 -232.61,100.53 -398.19,100.53l-540.11 0 0 -1277.32 855.51 0zm-315.4 961.93c70.97,0 106.45,-34.16 106.45,-102.49 0,-65.72 -36.79,-98.57 -110.38,-98.57l-104.49 0 0 201.06 108.42 0zm1257.64 -585.44l423.83 0 0 900.83 -423.83 0 0 -376.48 0 -98.58 -169.51 475.06 -423.82 0 0 -900.83 423.82 0 0 463.23 169.51 -463.23zm1050.67 900.83l0 -1277.32 800.29 0 0 348.9 -341.01 0 0 928.42 -459.28 0zm1393.63 -374.53l0 374.53 -459.31 0 0 -1277.32 569.68 0c177.41,0 310.79,36.46 400.17,109.4 89.36,72.92 134.04,190.86 134.04,353.83 0,123.51 -46.99,227.68 -140.95,312.42 -93.97,84.77 -223.74,127.14 -389.32,127.14l-114.31 0zm1.95 -333.11l110.4 0c64.4,0 96.58,-34.83 96.58,-104.49 0,-70.96 -34.81,-106.44 -104.47,-106.44l-102.51 0 0 210.93zm1381.83 -96.6l208.93 -473.08 520.42 0 -674.18 1277.32 -522.35 0 171.5 -327.22 -374.54 -950.1 520.4 0 149.82 473.08zm814.09 804.24l0 -1277.32 1198.51 0 0 1277.32 -459.31 0 0 -928.42 -279.92 0 0 928.42 -459.28 0zm1336.47 0l0 -1277.32 1198.51 0 0 1277.32 -459.31 0 0 -928.42 -279.91 0 0 928.42 -459.29 0z"/>
   <circle class="fil1" cx="5954.59" cy="706.5" r="404.39"/>
   <path class="fil3" d="M6944.28 1012.67l0 0.03c0.71,0 1.45,-0.03 2.18,-0.03 268.97,0 488.34,219.37 488.34,488.34 0,268.98 -219.37,488.35 -488.34,488.35 -0.73,0 -1.47,-0.03 -2.18,-0.03l0 0.03 -483.72 0 0 -439.78c-1.59,-15.98 -2.44,-32.18 -2.44,-48.57 0,-16.39 0.85,-32.63 2.44,-48.6l0 -439.74 483.72 0z"/>
   <path class="fil3" d="M7013.72 2097.58l0 0.03c0.83,0 1.66,-0.03 2.5,-0.03 307.39,0 558.1,250.7 558.1,558.1 0,307.39 -250.71,558.1 -558.1,558.1 -0.84,0 -1.67,-0.03 -2.5,-0.03l0 0.03 -552.81 0 0 -502.6c-1.81,-18.26 -2.79,-36.77 -2.79,-55.5 0,-18.74 0.98,-37.29 2.79,-55.55l0 -502.55 552.81 0z"/>
   <path class="fil1" d="M5971.16 3049.84l0 -153.3 0 0.02c-1325.14,60.05 -1603.42,-1501.52 -531.19,-2032.64 -821.44,700.99 -443.97,1641.12 531.19,1587.52l0 -170.52 384.46 384.46 -384.46 384.46z"/>
   <path class="fil3" d="M5547.39 3213.78l0 -312.82 70.12 16.85 112.49 17.17 118.6 8.31 76.78 -0.6 0.02 217.65 430.72 -430.72 0 484.16 -808.73 0zm0 -857.86l0 -1362.74 2.86 0c90.02,126.52 237.83,209.28 404.34,209.28 164.84,0 311.27,-81.11 401.53,-205.48l0 1604.16 -430.76 -430.76 0.03 236.36 -43.48 1.03 -83.05 -3.32 -79.22 -8.49 -75.31 -13.39 -71.27 -18.08 -25.67 -8.57z"/>
  </g>
 </g>
</svg>
